<?xml version="1.0" standalone="no"?><!DOCTYPE svg PUBLIC "-//W3C//DTD SVG 1.1//EN" "http://www.w3.org/Graphics/SVG/1.1/DTD/svg11.dtd"><svg t="1704770129506" class="icon" viewBox="0 0 1024 1024" version="1.1" xmlns="http://www.w3.org/2000/svg" p-id="7409" xmlns:xlink="http://www.w3.org/1999/xlink" width="200" height="200"><path d="M963.584 772.608c-15.36-12.8-180.224-161.28-190.464-171.52-15.36-15.872-34.304-20.992-45.568-20.992h-284.16c-30.208 2.56-75.264 25.6-74.24 77.312 1.024 40.96 26.624 74.24 66.048 84.992h-98.816c-39.936-29.184-79.872-58.88-119.296-89.088-37.376-27.136-72.704-37.376-104.448-30.208-24.064 5.632-44.032 20.992-55.808 42.496-8.192 18.432-11.776 47.104 5.632 67.584 1.024 1.024 1.536 2.048 2.56 2.56 46.08 41.472 201.216 181.248 214.016 192 13.824 11.776 32.768 16.896 50.688 13.824 34.304 0 297.984-0.512 321.024 0 12.288 0 22.016 8.192 22.016 8.704 0 0 51.712 45.568 64.512 55.808 15.872 13.312 30.72 16.896 41.984 16.896 2.56 0 5.12 0 7.68-0.512 13.824-2.048 26.624-9.728 35.328-20.48l144.384-157.696c1.024-1.024 1.536-2.048 2.048-2.56 17.92-23.04 15.872-51.712-5.12-69.12z m-186.368 184.32c-20.48-17.92-41.472-35.84-61.952-53.76-2.56-2.56-27.648-24.576-64-25.088-25.088-0.512-313.344 0-325.632 0-2.048 0-4.608 0-6.656 0.512-68.608-61.44-137.216-122.88-205.312-184.32 3.072-4.096 7.68-7.168 12.8-8.704 12.8-3.072 31.232 4.096 51.712 18.944 50.176 38.912 127.488 95.232 128.512 95.744 5.632 4.096 12.288 6.144 18.944 6.144h189.44c6.656 0 13.312-2.048 18.432-6.144l53.76-38.4c16.384-11.264 24.064-27.136 19.456-43.008-1.536-5.632-8.704-24.576-35.328-26.624-77.824-5.632-109.056-9.216-119.808-11.264-17.408-4.096-19.456-19.968-19.456-25.088 0-8.704 8.704-11.264 14.848-12.288H727.04c-2.56 0-3.584 0-1.024 1.536 11.264 11.264 143.36 129.536 183.808 165.888l-132.608 145.92z" p-id="7410" fill="#1296db"></path><path d="M166.4 612.864c17.408 0 31.744-15.872 31.744-33.28l-0.512-515.584h443.904v110.08c0 44.032 35.328 79.36 79.36 79.36h110.08v329.216c0 17.92 14.336 31.744 31.744 31.744 17.92 0 31.744-14.336 31.744-31.744v-421.376L736.256 0.512h-539.136c-35.328 0-63.488 29.696-63.488 66.048v516.608c1.024 16.896 15.36 29.696 32.768 29.696z m665.088-425.984v2.56h-110.08c-8.704 0-15.36-6.656-15.36-15.36v-110.08h4.608l120.832 122.88z" p-id="7411" fill="#1296db"></path><path d="M707.072 291.84h-384c-17.92 0-31.744 14.336-31.744 31.744 0 17.92 14.336 31.744 31.744 31.744h384c17.92 0 31.744-14.336 31.744-31.744 0.512-17.408-13.824-31.744-31.744-31.744z m0 128h-384c-17.92 0-31.744 14.336-31.744 31.744 0 17.92 14.336 31.744 31.744 31.744h384c17.92 0 31.744-14.336 31.744-31.744 0.512-17.408-13.824-31.744-31.744-31.744z" p-id="7412" fill="#1296db"></path></svg>